<svg width="56" height="57" viewBox="0 0 56 57" fill="none" xmlns="http://www.w3.org/2000/svg">
<path d="M14.0985 28.571C14.1022 24.9289 15.5506 21.4371 18.1259 18.8617C20.7013 16.2864 24.1931 14.838 27.8352 14.8343C30.2451 14.8393 32.6116 15.4756 34.699 16.6798C36.7864 17.8841 38.5219 19.6143 39.7325 21.698L36.2554 23.7091L47.9161 16.9776C47.6162 16.4334 47.1827 15.9744 46.6565 15.6438L29.619 5.80867C28.6355 5.24037 27.0303 5.24037 26.0491 5.80867L9.01156 15.6438C8.03269 16.2098 7.2301 17.6016 7.2301 18.7359V38.4062C7.2301 38.9745 7.42959 39.6054 7.75433 40.1644L15.9402 35.4371C14.7305 33.3513 14.095 30.9822 14.0985 28.571Z" fill="black"/>
<path d="M33.7828 25.1357C33.1781 24.0935 32.3107 23.228 31.2671 22.6257C30.2235 22.0233 29.0403 21.705 27.8353 21.7027C26.6307 21.705 25.4479 22.0238 24.4052 22.6272C23.3626 23.2305 22.4968 24.0971 21.8945 25.1404C21.2922 26.1836 20.9746 27.3667 20.9734 28.5713C20.9722 29.7759 21.2876 30.9597 21.8878 32.0041L27.8353 28.5711L33.7828 25.1357Z" fill="black"/>
<path d="M47.9162 16.9777L36.2115 23.7347L33.7852 25.1381L33.7829 25.1357L27.8354 28.5711L21.8902 32.0041C22.4932 33.0475 23.3598 33.9141 24.4032 34.5171C25.4467 35.12 26.6303 35.4381 27.8354 35.4394C29.041 35.4375 30.225 35.1192 31.2691 34.5164C32.3132 33.9135 33.1808 33.0473 33.7852 32.0041L39.7303 35.4441C38.5201 37.5281 36.7847 39.2586 34.6972 40.4629C32.6097 41.6672 30.243 42.3033 27.8331 42.3078C25.422 42.3064 23.0536 41.6708 20.9658 40.4648C18.878 39.2589 17.1441 37.525 15.9381 35.4371L7.7522 40.1645C8.07694 40.7258 8.52231 41.2153 9.01175 41.4983L26.0493 51.3334C27.0305 51.9017 28.6356 51.9017 29.6192 51.3334L46.6567 41.4983C47.1461 41.2153 47.5915 40.7258 47.9162 40.1645C48.241 39.6055 48.4405 38.9745 48.4405 38.4062V18.7359C48.4405 18.1676 48.241 17.5367 47.9162 16.9777ZM41.5721 29.3342H40.0458V30.8605H38.5218V29.3342H36.9955V27.8079H38.5218V26.2816H40.0458V27.8079H41.5721V29.3342ZM47.2969 29.3342H45.7706V30.8605H44.2443V29.3342H42.7203V27.8079H44.2443V26.2816H45.7706V27.8079H47.2969V29.3342Z" fill="black"/>
</svg>
