<svg width="56" height="56" viewBox="0 0 56 56" fill="none" xmlns="http://www.w3.org/2000/svg">
<path d="M10.2678 47.5104L6.35864 3.66803H49.312L45.3977 47.5034L27.8092 52.3798L10.2678 47.5104Z" fill="#E44F26"/>
<path d="M27.8353 48.6534L42.0487 44.7129L45.3925 7.25354H27.8353V48.6534Z" fill="#F1662A"/>
<path d="M27.8353 23.5129H20.7199L20.2293 18.0067H27.8353V12.6293H14.3525L14.4813 14.0732L15.8017 28.8903H27.8353V23.5129Z" fill="#EBEBEB"/>
<path d="M27.8352 37.4775L27.8109 37.4845L21.8228 35.8683L21.4401 31.5799H16.0417L16.795 40.021L27.8109 43.0794L27.8352 43.0724V37.4775Z" fill="#EBEBEB"/>
<path d="M27.8162 23.5128V28.8903H34.4375L33.8147 35.8647L27.8162 37.4827V43.0776L38.8407 40.0209L38.9207 39.1128L40.1837 24.9568L40.316 23.5128H27.8162Z" fill="white"/>
<path d="M27.8162 12.6293V18.0067H40.8048L40.9127 16.7994L41.158 14.0732L41.2867 12.6293H27.8162Z" fill="white"/>
</svg>
