<svg width="44" height="57" viewBox="0 0 44 57" fill="none" xmlns="http://www.w3.org/2000/svg">
<g clip-path="url(#clip0)">
<path d="M13.7751 43.6014C13.7751 43.6014 11.557 44.8401 15.353 45.2576C16.7423 45.4548 18.3467 45.5685 19.9753 45.5685C22.5945 45.5685 25.1412 45.2785 27.5841 44.7265L27.3594 44.7682C28.263 45.2971 29.3141 45.8004 30.4087 46.2156L30.5512 46.262C19.1996 50.9337 4.85913 45.9906 13.7775 43.5991L13.7751 43.6014Z" fill="black"/>
<path d="M12.3882 37.5055C12.3882 37.5055 9.90182 39.273 13.6978 39.6488C18.9735 40.2511 24.3174 39.9907 29.5025 38.8787L29.1908 38.9344C29.8553 39.5328 30.6502 40.0084 31.5298 40.3169L31.5781 40.3308C17.8537 44.1837 2.56364 40.6346 12.3882 37.5055Z" fill="black"/>
<path d="M24.0806 27.1647C26.8786 30.2567 23.346 33.0379 23.346 33.0379C23.346 33.0379 30.4474 29.5121 27.1879 25.1095C24.141 20.9992 21.8044 18.9556 34.4511 11.9156C34.4511 11.9156 14.5991 16.6754 24.0806 27.1647Z" fill="black"/>
<path d="M39.0952 48.1108C39.0952 48.1108 40.7334 49.4097 37.2902 50.4118C30.7373 52.3185 10.0179 52.8938 4.25993 50.4884C2.19161 49.6231 6.07212 48.4239 7.28992 48.1734C7.85049 48.0365 8.49563 47.9577 9.1601 47.9577H9.29783H9.29058C6.9903 46.4012 -5.5815 51.0149 2.91165 52.3325C26.057 55.9371 45.1044 50.7087 39.1024 48.1108H39.0952Z" fill="black"/>
<path d="M14.8406 31.1892C14.8406 31.1892 4.30091 33.5923 11.1075 34.4644C15.8617 34.815 20.639 34.7584 25.3828 34.2951L25.0469 34.323C29.4083 33.9704 33.789 33.2095 33.789 33.2095C32.8423 33.6025 31.9321 34.072 31.0683 34.6129L31.1383 34.5712C20.4343 37.2735 -0.239243 36.0163 5.71201 33.2513C8.50438 31.8801 11.5979 31.1699 14.7343 31.1799H14.8455H14.8406V31.1892Z" fill="black"/>
<path d="M33.7455 41.3375C44.6235 35.9096 39.5953 30.6951 36.082 31.3957C35.6387 31.473 35.203 31.5863 34.7797 31.7343L34.8352 31.7181C35.0627 31.4076 35.3816 31.1693 35.751 31.0338L35.7655 31.0292C42.7098 28.6863 48.0546 37.9439 33.5232 41.6066C33.6115 41.5312 33.6844 41.4408 33.7382 41.3398L33.7407 41.3352L33.7455 41.3375Z" fill="black"/>
<path d="M27.1878 0.547089C27.1878 0.547089 33.214 6.3322 21.471 15.2302C12.0572 22.3677 19.3229 26.4363 21.471 31.0871C15.9764 26.3272 11.9436 22.138 14.6474 18.2364C18.6198 12.5116 29.621 9.73738 27.1878 0.544769V0.547089Z" fill="black"/>
<path d="M15.9112 56.0438C26.3494 56.6863 42.3934 55.6866 42.78 50.9453C42.78 50.9453 42.0503 52.743 34.1491 54.1719C29.7853 54.9281 24.7619 55.3595 19.6322 55.3595C15.4303 55.3595 11.301 55.0696 7.25854 54.5105L7.72005 54.5639C7.72005 54.5639 9.05624 55.6263 15.9184 56.0484L15.9112 56.0438Z" fill="black"/>
</g>
<defs>
<clipPath id="clip0">
<rect width="43.4927" height="55.6707" fill="white" transform="translate(0 0.54715)"/>
</clipPath>
</defs>
</svg>
