<svg width="56" height="56" viewBox="0 0 56 56" fill="none" xmlns="http://www.w3.org/2000/svg">
<g clip-path="url(#clip0)">
<path d="M49.7059 3.57373H5.96471C2.67169 3.57373 0 5.91146 0 8.79285V47.0664C0 49.9478 2.67169 52.2855 5.96471 52.2855H49.7059C52.999 52.2855 55.6707 49.9478 55.6707 47.0664V8.79285C55.6707 5.91146 52.999 3.57373 49.7059 3.57373ZM30.2958 41.5646C30.2958 46.3053 27.1146 48.4691 22.4795 48.4691C18.2918 48.4691 15.8686 46.5771 14.626 44.2829L18.8883 42.0321C19.7084 43.3043 20.454 44.3808 22.2558 44.3808C23.9707 44.3808 25.0642 43.7936 25.0642 41.4994V25.9398H30.2958V41.5646ZM42.6725 48.4691C37.8138 48.4691 34.6699 46.4467 33.1414 43.7936L37.4037 41.6407C38.5221 43.2391 39.9884 44.4242 42.5607 44.4242C44.7229 44.4242 46.1147 43.4783 46.1147 42.1626C46.1147 40.5969 44.6981 40.0424 42.2998 39.1181L40.995 38.6288C37.2173 37.2262 34.7196 35.4539 34.7196 31.7244C34.7196 28.2885 37.7144 25.6789 42.3743 25.6789C45.7046 25.6789 48.0905 26.6901 49.8053 29.3432L45.7295 31.6265C44.8348 30.2239 43.8655 29.6693 42.3619 29.6693C40.8334 29.6693 39.8642 30.5175 39.8642 31.6265C39.8642 32.9965 40.8334 33.5511 43.0826 34.4101L44.3874 34.8993C48.8361 36.5629 51.3338 38.27 51.3338 42.0974C51.3338 46.2074 47.6307 48.4691 42.6725 48.4691Z" fill="black"/>
</g>
<defs>
<clipPath id="clip0">
<rect width="55.6707" height="55.6707" fill="white" transform="translate(0 0.0942993)"/>
</clipPath>
</defs>
</svg>
