<svg width="56" height="57" viewBox="0 0 56 57" fill="none" xmlns="http://www.w3.org/2000/svg">
<path d="M37.0558 11.0797C36.9174 11.0797 36.7846 11.1346 36.6867 11.2325C36.5889 11.3304 36.5339 11.4631 36.5339 11.6016V21.1647L34.3662 19.9C34.2324 19.8208 34.0798 19.7791 33.9243 19.7791C33.7688 19.7791 33.6162 19.8208 33.4824 19.9L28.2737 22.9375C28.1406 23.0144 28.03 23.1249 27.953 23.2581C27.8761 23.3912 27.8355 23.5422 27.8353 23.696V29.778C27.8353 30.0912 28.0023 30.38 28.2737 30.5365L33.4824 33.5741C33.6162 33.6532 33.7688 33.695 33.9243 33.695C34.0798 33.695 34.2324 33.6532 34.3662 33.5741L39.5749 30.5365C39.708 30.4597 39.8187 30.3491 39.8956 30.216C39.9726 30.0828 40.0131 29.9318 40.0133 29.778V13.2195C40.0128 13.0678 39.9728 12.9188 39.8971 12.7873C39.8215 12.6558 39.7128 12.5463 39.5818 12.4697L37.315 11.151C37.237 11.1049 37.1481 11.0803 37.0575 11.0797H37.0558ZM20.0066 19.7817C19.8515 19.7815 19.6991 19.8223 19.5648 19.9L14.3561 22.9375C14.2229 23.0144 14.1123 23.1249 14.0353 23.2581C13.9584 23.3912 13.9178 23.5422 13.9177 23.696V29.778C13.9177 30.0912 14.0847 30.38 14.3561 30.5365L19.5648 33.5741C19.8379 33.7306 20.1737 33.7306 20.4485 33.5741L25.6572 30.5365C25.7904 30.4597 25.901 30.3491 25.9779 30.216C26.0549 30.0828 26.0955 29.9318 26.0956 29.778V23.696C26.0958 23.5422 26.0554 23.391 25.9784 23.2578C25.9014 23.1246 25.7906 23.0141 25.6572 22.9375L20.4485 19.9C20.3142 19.8223 20.1618 19.7815 20.0066 19.7817ZM47.842 19.7817C47.6867 19.7809 47.5341 19.8217 47.4001 19.9L42.1914 22.9375C42.0582 23.0144 41.9476 23.1249 41.8707 23.2581C41.7937 23.3912 41.7531 23.5422 41.753 23.696V29.778C41.753 30.0912 41.92 30.38 42.1914 30.5365L47.2435 33.5897C47.377 33.6708 47.53 33.7142 47.6862 33.7154C47.8424 33.7166 47.996 33.6756 48.1308 33.5967L50.6151 32.1527C50.6735 32.1183 50.7219 32.0692 50.7556 32.0103C50.7893 31.9514 50.807 31.8848 50.807 31.817C50.807 31.7491 50.7893 31.6825 50.7556 31.6236C50.7219 31.5647 50.6735 31.5156 50.6151 31.4812L45.2324 28.3097V25.1887L47.842 23.6699L50.4515 25.1887V27.3633C50.4515 27.6538 50.6951 27.6991 50.8586 27.6017C51.7381 27.0882 52.6184 26.5761 53.4995 26.0655C53.6306 25.989 53.7394 25.8796 53.815 25.748C53.8907 25.6165 53.9307 25.4674 53.9309 25.3157V23.6978C53.9312 23.5439 53.8907 23.3927 53.8137 23.2595C53.7367 23.1263 53.6259 23.0159 53.4925 22.9392L48.2839 19.9017C48.1497 19.8237 47.9972 19.7829 47.842 19.7834V19.7817ZM6.08898 19.7851C5.93375 19.7844 5.78116 19.8252 5.64709 19.9034L0.438406 22.9375C0.30508 23.0151 0.194433 23.1263 0.117506 23.26C0.0405789 23.3937 6.25107e-05 23.5452 0 23.6995V31.4638C0 31.8431 0.410571 32.0779 0.737636 31.8883L3.04797 30.5435C3.17918 30.4667 3.28803 30.357 3.36371 30.2251C3.4394 30.0933 3.47929 29.944 3.47942 29.7919V25.1939L6.08898 23.6717L8.69854 25.1939V29.7919C8.69854 30.1016 8.86381 30.3852 9.12999 30.5418L11.4403 31.8883C11.5149 31.9318 11.5997 31.9548 11.686 31.955C11.7723 31.9553 11.8572 31.9327 11.9321 31.8896C12.0069 31.8466 12.069 31.7845 12.1122 31.7098C12.1554 31.635 12.1781 31.5501 12.178 31.4638V23.6995C12.1779 23.5452 12.1374 23.3937 12.0604 23.26C11.9835 23.1263 11.8729 23.0151 11.7395 22.9375L6.53086 19.9034C6.39679 19.8252 6.2442 19.7844 6.08898 19.7851ZM33.9243 23.6682L36.5339 25.1904V28.2836L33.9243 29.8059L31.3147 28.2836V25.1887L33.9243 23.6664V23.6682ZM47.842 25.0043L46.351 25.8741V27.6104L47.842 28.4767L49.3329 27.6104V25.8741L47.842 25.0043ZM26.8019 31.9527C26.6212 31.9516 26.4433 31.9972 26.2852 32.0849L21.3932 34.9136C21.2358 35.0029 21.1049 35.1324 21.0141 35.289C20.9233 35.4455 20.8758 35.6234 20.8765 35.8044V41.4515C20.8765 41.8151 21.08 42.1578 21.3932 42.3422L22.6806 43.0764C23.2982 43.3808 23.5261 43.3808 23.8062 43.3808C24.7282 43.3808 25.2536 42.8293 25.2536 41.8551V36.2758C25.2541 36.2568 25.2507 36.2379 25.2438 36.2202C25.2368 36.2025 25.2264 36.1863 25.2131 36.1727C25.1998 36.1591 25.1839 36.1483 25.1664 36.1409C25.1488 36.1335 25.13 36.1297 25.1109 36.1297H24.4916C24.4528 36.1297 24.4157 36.1451 24.3883 36.1725C24.3609 36.1999 24.3455 36.2371 24.3455 36.2758V41.8551C24.3455 42.2778 23.8984 42.7128 23.1694 42.3492L21.8299 41.5767C21.808 41.563 21.7899 41.544 21.7771 41.5215C21.7644 41.4991 21.7574 41.4738 21.7568 41.448V35.8009C21.7568 35.7504 21.7811 35.6913 21.8316 35.6652L26.7237 32.8451C26.7471 32.8322 26.7734 32.8254 26.8002 32.8254C26.827 32.8254 26.8533 32.8322 26.8767 32.8451L31.774 35.6635C31.8245 35.6913 31.8488 35.7417 31.8488 35.8009V41.448C31.8487 41.4751 31.8418 41.5017 31.8287 41.5254C31.8157 41.5491 31.7969 41.5691 31.774 41.5837L26.8767 44.4142C26.8533 44.4271 26.827 44.4339 26.8002 44.4339C26.7734 44.4339 26.7471 44.4271 26.7237 44.4142L25.4745 43.6696C25.4397 43.6522 25.3876 43.6435 25.3545 43.6609C25.1256 43.8077 24.8773 43.9218 24.6169 44.0001C24.5316 44.0262 24.4168 44.0784 24.6621 44.2141L26.2852 45.1797C26.444 45.266 26.6213 45.3126 26.8019 45.3154C26.9819 45.3172 27.1588 45.2677 27.3117 45.1727L32.2055 42.3422C32.3629 42.2529 32.4937 42.1234 32.5845 41.9669C32.6754 41.8103 32.7229 41.6324 32.7222 41.4515V35.8044C32.7199 35.624 32.6711 35.4473 32.5806 35.2913C32.4901 35.1352 32.3609 35.0052 32.2055 34.9136L27.3117 32.0866C27.1563 31.9985 26.9805 31.9529 26.8019 31.9544V31.9527ZM34.434 34.5587C34.3107 34.559 34.1886 34.5835 34.0747 34.6309C33.9608 34.6783 33.8573 34.7477 33.7703 34.8351C33.5944 35.0116 33.4959 35.2508 33.4963 35.4999C33.4968 35.7491 33.5962 35.9879 33.7727 36.1637C33.9492 36.3396 34.1884 36.4381 34.4375 36.4376C34.6867 36.4372 34.9254 36.3378 35.1013 36.1612C35.2771 35.9847 35.3757 35.7456 35.3752 35.4964C35.3748 35.2473 35.2753 35.0085 35.0988 34.8327C34.9223 34.6568 34.6832 34.5583 34.434 34.5587ZM34.4236 34.7084C34.8655 34.7084 35.2239 35.0563 35.2239 35.4964C35.2207 35.7077 35.1354 35.9094 34.986 36.0588C34.8366 36.2082 34.6349 36.2936 34.4236 36.2967C34.2135 36.2944 34.0129 36.2089 33.8658 36.0588C33.7187 35.9088 33.6371 35.7066 33.639 35.4964C33.639 35.0563 33.9922 34.7084 34.4236 34.7084ZM34.0809 34.9641V36.0201H34.2809V35.5991H34.4688C34.5454 35.5991 34.5628 35.6304 34.5802 35.6896C34.5802 35.6983 34.6115 35.9731 34.6202 36.0236H34.8377C34.81 35.9319 34.7931 35.8373 34.7872 35.7417C34.7628 35.6061 34.7559 35.5121 34.6115 35.5034C34.688 35.4773 34.815 35.4373 34.815 35.2425C34.815 34.9624 34.5715 34.9641 34.4445 34.9641H34.0791H34.0809ZM34.2809 35.1329H34.4514C34.5036 35.1329 34.6045 35.1329 34.6045 35.2755C34.6045 35.3347 34.5784 35.4321 34.441 35.4286H34.2809V35.1329ZM28.1137 35.9957C26.7167 35.9957 25.8869 36.5925 25.8869 37.5737C25.8869 38.6488 26.7184 38.9359 28.0563 39.0698C29.6568 39.2316 29.7821 39.4612 29.7821 39.7744C29.7821 40.3241 29.3402 40.552 28.3068 40.552C27.0107 40.552 26.7271 40.2319 26.6332 39.5882C26.6245 39.5187 26.5636 39.4682 26.4871 39.4682H25.8503C25.8313 39.4682 25.8125 39.472 25.7949 39.4794C25.7774 39.4868 25.7615 39.4976 25.7482 39.5112C25.7349 39.5248 25.7245 39.541 25.7175 39.5587C25.7105 39.5764 25.7072 39.5953 25.7077 39.6143C25.7077 40.4355 26.1565 41.4184 28.2981 41.4184C29.869 41.4184 30.758 40.8095 30.758 39.7413C30.758 38.6836 30.0448 38.4018 28.5382 38.1982C27.0142 37.9947 26.8628 37.892 26.8628 37.5354C26.8628 37.2396 26.9881 36.8517 28.1154 36.8517C29.121 36.8517 29.4967 37.0726 29.6498 37.7494C29.6672 37.819 29.7142 37.859 29.7821 37.859H30.417C30.4588 37.859 30.4953 37.8416 30.5197 37.8172C30.5458 37.7842 30.5614 37.7511 30.5545 37.7094C30.4536 36.5403 29.6812 35.9957 28.1137 35.9957Z" fill="black"/>
</svg>
