<svg width="56" height="56" viewBox="0 0 56 56" fill="none" xmlns="http://www.w3.org/2000/svg">
<path d="M33.1911 0.418079L35.284 0.879101L36.9767 1.48626L38.3459 2.18214L39.388 2.92674L40.176 3.71482L40.7554 4.50117L41.1259 5.2649L41.3538 5.96079L41.453 6.55925L41.5 7.03071L41.4721 7.32994V19.7167L41.3538 21.1763L41.0546 22.455L40.5657 23.5249L39.9673 24.4034L39.2714 25.1184L38.5112 25.6978L37.6952 26.1431L36.8793 26.4685L36.119 26.7051L35.4232 26.8582L34.8247 26.9573L34.3358 27.0043H20.4808L18.8872 27.1209L17.5181 27.4392L16.3577 27.9559L15.4061 28.5805L14.6354 29.3251L14.0091 30.1305L13.5481 30.9743L13.2019 31.825L12.967 32.6392L12.8052 33.3838L12.713 34.0084L12.6695 34.4972V41.5935H7.4939L7.00678 41.5187L6.35265 41.3569L5.62023 41.0855L4.80431 40.668L3.97099 40.0625L3.13767 39.2275L2.32175 38.1576L1.57889 36.7884L0.924761 35.0957L0.444602 33.0567L0.119277 30.6194L0.000976562 27.7663L0.138413 24.9393L0.508971 22.5298L1.0709 20.51L1.81375 18.8607L2.64881 17.5385L3.5726 16.5226L4.55205 15.7519L5.52107 15.2004L6.45355 14.8298L7.28861 14.5932L8.03147 14.4749L8.58296 14.4558H8.95351L9.09965 14.4749H28.019V12.5543H14.4719L14.4527 6.17477L14.4092 5.31362L14.5275 4.52553L14.7798 3.81051L15.1695 3.15638L15.7488 2.55966L16.4743 2.02383L17.3511 1.56281L18.3758 1.13658L19.5536 0.793856L20.9036 0.513763L22.3788 0.285861L24.0281 0.141465L25.8148 0.0510004L27.7632 0.00402832L30.7068 0.122328L33.1911 0.418079ZM18.5845 5.01091L18.0487 5.77116L17.8591 6.72278L18.0487 7.67614L18.5845 8.46249L19.3448 8.97918L20.2964 9.18795L21.248 8.97918L22.0083 8.46249L22.5441 7.67614L22.7337 6.72278L22.5441 5.77116L22.0083 5.01091L21.248 4.50291L20.2964 4.29589L19.3448 4.50291L18.5845 5.01091ZM48.9477 14.1705L49.5896 14.3166L50.3325 14.588L51.1484 15.0055L51.9817 15.6301L52.8168 16.446L53.631 17.5333L54.3738 18.899L55.0192 20.5952L55.5081 22.6428L55.8334 25.0523L55.9517 27.9055L55.8073 30.7603L55.4333 33.1698L54.8818 35.1618L54.1389 36.811L53.3039 38.1332L52.3714 39.177L51.4024 39.9373L50.4229 40.4992L49.4991 40.8698L48.6641 41.0785L47.9212 41.1968L47.3697 41.2403L46.9992 41.2142H27.925V43.1157H41.4721L41.5 49.5231L41.5435 50.3564L41.4252 51.1445L41.1729 51.8595L40.7745 52.5293L40.1952 53.1086L39.4802 53.6723L38.6016 54.1333L37.5769 54.5317L36.3991 54.8744L35.0491 55.1736L33.5652 55.3824L31.9246 55.5442L30.1292 55.6347L28.1808 55.6625L25.2372 55.572L22.7546 55.245L20.6687 54.7839L18.976 54.2046L17.6068 53.507L16.5647 52.7363L15.7766 51.9482L15.1973 51.1619L14.8268 50.3981L14.5902 49.7023L14.4997 49.1229L14.4527 48.6584L14.4719 48.3609V35.9742L14.5902 34.4868L14.8981 33.2272L15.3783 32.1677L15.9854 31.2788L16.6813 30.5463L17.445 29.9844L18.2592 29.5199L19.0664 29.1946L19.8371 28.958L20.5347 28.824L21.1315 28.7336L21.9196 28.6588H35.4667L37.0689 28.5422L38.4381 28.2238L39.5985 27.735L40.5501 27.0826L41.3138 26.338L41.9384 25.5325L42.4098 24.6887L42.756 23.8554L42.9909 23.0482L43.1562 22.3053L43.2466 21.653L43.2901 21.1641V14.0678H48.1387L48.4658 14.087L48.9477 14.1705ZM33.9322 47.2249L33.3964 47.9956L33.2155 48.949L33.3964 49.9006L33.9322 50.6608L34.7029 51.1949L35.6546 51.3759L36.6062 51.1949L37.3664 50.6608L37.9023 49.9006L38.0919 48.949L37.9023 47.9956L37.3664 47.2249L36.6062 46.6908L35.6546 46.5099L34.7029 46.6908L33.9322 47.2249Z" fill="black"/>
</svg>
